<svg xmlns="http://www.w3.org/2000/svg" viewBox="0 0 24 24"
fill="none" stroke="currentColor" stroke-width="1.5" stroke-linecap="round" stroke-linejoin="round">
  <path d="M12 6.75c-2.2-1.2-4.7-2.25-7.5-2.25A2.25 2.25 0 0 0 2.25 6.75v10.5a.75.75 0 0 0 1.2.6c2.02-1.47 4.58-2.1 7.05-2.1.6 0 1.2.05 1.5.15V6.75z"/>
  <path d="M12 6.75c2.2-1.2 4.7-2.25 7.5-2.25A2.25 2.25 0 0 1 21.75 6.75v10.5a.75.75 0 0 1-1.2.6c-2.02-1.47-4.58-2.1-7.05-2.1-.6 0-1.2.05-1.5.15V6.75z"/>
  <path d="M12 6.75v9.15"/>
</svg>
